<svg width="1400" height="620" viewBox="0 0 1400 620" fill="none" xmlns="http://www.w3.org/2000/svg" role="img" aria-labelledby="title desc">
  <title id="title">Academic project page template workflow</title>
  <desc id="desc">A wide system diagram showing YAML metadata and markdown sections flowing into a React renderer that produces a polished academic project page.</desc>

  <defs>
    <linearGradient id="surface" x1="0" y1="0" x2="1400" y2="620" gradientUnits="userSpaceOnUse">
      <stop stop-color="#fbfbfb"/>
      <stop offset="1" stop-color="#f4f4f5"/>
    </linearGradient>
    <linearGradient id="blue" x1="0" y1="0" x2="1" y2="1">
      <stop stop-color="#2563eb"/>
      <stop offset="1" stop-color="#0f766e"/>
    </linearGradient>
    <filter id="shadow" x="-20%" y="-20%" width="140%" height="150%">
      <feDropShadow dx="0" dy="12" stdDeviation="18" flood-color="#18181b" flood-opacity=".12"/>
    </filter>
    <pattern id="grid" width="28" height="28" patternUnits="userSpaceOnUse">
      <path d="M28 0H0V28" stroke="#e4e4e7" stroke-width="1"/>
    </pattern>
    <marker id="arrow" markerWidth="12" markerHeight="12" refX="10" refY="6" orient="auto" markerUnits="strokeWidth">
      <path d="M2 2L10 6L2 10" fill="none" stroke="#52525b" stroke-width="2" stroke-linecap="square" stroke-linejoin="miter"/>
    </marker>
  </defs>

  <rect width="1400" height="620" fill="url(#surface)"/>
  <rect x="1" y="1" width="1398" height="618" fill="url(#grid)" opacity=".42"/>

  <g opacity=".78">
    <path d="M84 94H1316" stroke="#d4d4d8" stroke-width="2"/>
    <path d="M84 526H1316" stroke="#d4d4d8" stroke-width="2"/>
  </g>

  <g filter="url(#shadow)">
    <rect x="84" y="112" width="318" height="382" fill="#ffffff" stroke="#d4d4d8" stroke-width="2"/>
    <rect x="84" y="112" width="318" height="54" fill="#18181b"/>
    <text x="110" y="146" fill="#fafafa" font-family="Inter, Arial, sans-serif" font-size="22" font-weight="700">config.yaml</text>
    <text x="314" y="146" fill="#a1a1aa" font-family="Inter, Arial, sans-serif" font-size="15">metadata</text>

    <text x="112" y="204" fill="#2563eb" font-family="ui-monospace, SFMono-Regular, Menlo, monospace" font-size="20" font-weight="700">project:</text>
    <rect x="112" y="226" width="204" height="13" fill="#dbeafe"/>
    <rect x="112" y="252" width="248" height="13" fill="#e0f2fe"/>
    <rect x="112" y="278" width="174" height="13" fill="#dbeafe"/>

    <text x="112" y="336" fill="#0f766e" font-family="ui-monospace, SFMono-Regular, Menlo, monospace" font-size="20" font-weight="700">authors:</text>
    <rect x="112" y="358" width="238" height="13" fill="#ccfbf1"/>
    <rect x="112" y="384" width="198" height="13" fill="#d1fae5"/>
    <rect x="112" y="410" width="264" height="13" fill="#ccfbf1"/>
    <text x="112" y="462" fill="#7c3aed" font-family="ui-monospace, SFMono-Regular, Menlo, monospace" font-size="20" font-weight="700">sections:</text>
  </g>

  <g filter="url(#shadow)">
    <rect x="466" y="112" width="280" height="382" fill="#ffffff" stroke="#d4d4d8" stroke-width="2"/>
    <rect x="466" y="112" width="280" height="54" fill="#27272a"/>
    <text x="492" y="146" fill="#fafafa" font-family="Inter, Arial, sans-serif" font-size="22" font-weight="700">sections/*.md</text>

    <g font-family="Inter, Arial, sans-serif">
      <rect x="496" y="206" width="220" height="52" fill="#f4f4f5" stroke="#d4d4d8" stroke-width="2"/>
      <text x="516" y="238" fill="#18181b" font-size="20" font-weight="700">Overview</text>
      <rect x="496" y="284" width="220" height="52" fill="#f4f4f5" stroke="#d4d4d8" stroke-width="2"/>
      <text x="516" y="316" fill="#18181b" font-size="20" font-weight="700">Method</text>
      <rect x="496" y="362" width="220" height="52" fill="#f4f4f5" stroke="#d4d4d8" stroke-width="2"/>
      <text x="516" y="394" fill="#18181b" font-size="20" font-weight="700">Results</text>
    </g>

    <path d="M520 454H692" stroke="#a1a1aa" stroke-width="9" stroke-linecap="square"/>
    <path d="M520 478H648" stroke="#d4d4d8" stroke-width="9" stroke-linecap="square"/>
  </g>

  <path d="M402 303H454" stroke="#52525b" stroke-width="3" marker-end="url(#arrow)"/>
  <path d="M746 303H822" stroke="#52525b" stroke-width="3" marker-end="url(#arrow)"/>

  <g filter="url(#shadow)">
    <rect x="826" y="152" width="200" height="302" fill="#ffffff" stroke="#d4d4d8" stroke-width="2"/>
    <rect x="858" y="184" width="136" height="136" fill="url(#blue)"/>
    <path d="M888 252L918 282L968 222" stroke="#ffffff" stroke-width="13" stroke-linecap="square" stroke-linejoin="miter"/>
    <text x="884" y="370" fill="#18181b" font-family="Inter, Arial, sans-serif" font-size="25" font-weight="800">React</text>
    <text x="864" y="402" fill="#71717a" font-family="Inter, Arial, sans-serif" font-size="18">typed renderer</text>
  </g>

  <path d="M1026 303H1096" stroke="#52525b" stroke-width="3" marker-end="url(#arrow)"/>

  <g filter="url(#shadow)">
    <rect x="1098" y="86" width="218" height="434" fill="#ffffff" stroke="#d4d4d8" stroke-width="2"/>
    <rect x="1122" y="116" width="170" height="24" fill="#18181b"/>
    <rect x="1122" y="160" width="136" height="13" fill="#a1a1aa"/>
    <rect x="1122" y="184" width="156" height="13" fill="#d4d4d8"/>

    <g>
      <circle cx="1140" cy="232" r="10" fill="#2563eb"/>
      <circle cx="1170" cy="232" r="10" fill="#0f766e"/>
      <circle cx="1200" cy="232" r="10" fill="#7c3aed"/>
      <circle cx="1230" cy="232" r="10" fill="#ea580c"/>
    </g>

    <rect x="1122" y="276" width="170" height="88" fill="#f4f4f5" stroke="#d4d4d8" stroke-width="2"/>
    <path d="M1142 332C1162 304 1184 304 1204 330C1222 354 1240 350 1272 306" stroke="#18181b" stroke-width="8" stroke-linecap="square"/>

    <rect x="1122" y="398" width="170" height="12" fill="#18181b"/>
    <rect x="1122" y="426" width="122" height="12" fill="#d4d4d8"/>
    <rect x="1122" y="454" width="154" height="12" fill="#d4d4d8"/>
    <rect x="1122" y="482" width="96" height="12" fill="#a1a1aa"/>
  </g>

  <g font-family="Inter, Arial, sans-serif" font-size="18" font-weight="700" fill="#52525b">
    <text x="164" y="80">metadata</text>
    <text x="548" y="80">content</text>
    <text x="875" y="128">compose</text>
    <text x="1144" y="58">project page</text>
  </g>

  <g font-family="Inter, Arial, sans-serif" font-size="16" fill="#71717a">
    <text x="156" y="548">title, authors, links, videos, citation</text>
    <text x="478" y="548">markdown sections with figures and code</text>
    <text x="847" y="548">validated config + reusable components</text>
    <text x="1092" y="548">responsive academic folio</text>
  </g>

  <g transform="translate(572 578)" font-family="Inter, Arial, sans-serif" font-size="16" fill="#71717a">
    <text x="0" y="16">*</text>
    <text x="16" y="16">Generated by GPT-5.5-codex</text>
  </g>
</svg>
